#!OML:ASF I:\Actors\actors\Patient Classification 2\Patient 1\Session 1\actor1.ASF
:FULLY-SPECIFIED
:DEGREES
351
root -0.338409 18.7814 5.31002 5.51316 11.7217 1.07944
lowerback 13.3556 6.62093 3.77162
upperback 1.0849 9.43969 1.66569
thorax -5.95149 4.54433 -2.02691
lowerneck -11.1294 -12.0405 -10.6195
upperneck 8.6866 -15.2082 5.93875
head 5.67635 -7.42563 2.12808
rclavicle -4.81059e-014 1.59028e-015
rhumerus -3.86675 11.8167 -57.9076
rradius 67.3655
rwrist -42.6043
rhand -2.16395 -51.8241
rfingers 7.12502
rthumb 23.5161 -80.4066
lclavicle -4.81059e-014 1.59028e-015
lhumerus -49.8363 -12.1711 94.6632
lradius 63.7221
lwrist 16.0196
lhand -7.50837 -22.6955
lfingers 7.12502
lthumb 18.3818 6.45595
rfemur 0 0 0
rtibia 0
rfoot 0 0
rtoes 0
lfemur -13.6607 -8.07123 -15.0626
ltibia 23.0541
lfoot -16.5482 5.03016
ltoes -55.7276
352
root -0.336975 18.7803 5.31319 5.41867 11.5139 1.08081
lowerback 13.292 6.67493 3.863
upperback 1.08871 9.51634 1.5952
thorax -5.88129 4.58152 -2.15123
lowerneck -11.2112 -12.0613 -10.5096
upperneck 9.02495 -15.2653 5.96382
head 5.79513 -7.44513 2.09924
rclavicle 6.36111e-015 -3.02153e-014
rhumerus -3.40173 12.1713 -57.5659
rradius 66.9731
rwrist -40.9236
rhand 1.16258 -53.1421
rfingers 7.12502
rthumb 26.7034 -81.2781
lclavicle 6.36111e-015 -3.02153e-014
lhumerus -49.6119 -12.7985 94.6675
lradius 63.1699
lwrist 15.9296
lhand -7.36499 -22.6065
lfingers 7.12502
lthumb 18.5198 6.53192
rfemur 0 0 0
rtibia 0
rfoot 0 0
rtoes 0
lfemur -13.4828 -7.88347 -15.1004
ltibia 23.0202
lfoot -16.5575 5.05525
ltoes -55.7296
353
root -0.334168 18.7787 5.31909 5.35792 11.4893 1.12355
lowerback 13.1625 6.65835 3.87148
upperback 1.10828 9.48559 1.55147
thorax -5.78158 4.57024 -2.17683
lowerneck -11.2338 -11.987 -10.1759
upperneck 9.25615 -15.2005 5.759
head 5.82475 -7.41488 1.99173
rclavicle -2.94201e-014 1.27222e-014
rhumerus -3.61956 12.299 -57.5475
rradius 68.6868
rwrist -42.5113
rhand -2.26162 -50.3868
rfingers 7.12502
rthumb 23.4224 -78.9813
lclavicle -2.94201e-014 1.27222e-014
lhumerus -49.4648 -13.0592 94.576
lradius 62.8129
lwrist 15.8344
lhand -7.29248 -22.5952
lfingers 7.12502
lthumb 18.5895 6.53655
rfemur 0 0 0
rtibia 0
rfoot 0 0
rtoes 0
lfemur -13.3704 -7.85566 -15.1689
ltibia 23.0107
lfoot -16.5316 5.05109
ltoes -55.7168
354
root -0.33243 18.7768 5.32765 5.32675 11.5133 1.16341
lowerback 12.9939 6.61405 3.74629
upperback 1.10847 9.40404 1.59132
thorax -5.71959 4.53686 -2.03465
lowerneck -11.1086 -11.8401 -9.99454
upperneck 9.43197 -15.0393 5.66263
head 5.82643 -7.33927 1.9591
rclavicle -4.94974e-014 -4.13472e-014
rhumerus -4.32692 11.2485 -58.1059
rradius 71.9221
rwrist -42.3233
rhand -3.54852 -51.3219
rfingers 7.12502
rthumb 22.1874 -80.0686
lclavicle -4.94974e-014 -4.13472e-014
lhumerus -49.5752 -12.9564 94.5033
lradius 62.7651
lwrist 15.7817
lhand -7.31896 -22.5833
lfingers 7.12502
lthumb 18.564 6.55087
rfemur 0 0 0
rtibia 0
rfoot 0 0
rtoes 0
lfemur -13.3203 -7.87079 -15.2219
ltibia 23.0309
lfoot -16.5117 4.99559
ltoes -55.6931
355
root -0.332065 18.7744 5.3374 5.23659 11.6413 1.12425
lowerback 12.9142 6.52364 3.66293
upperback 1.07699 9.27753 1.6918
thorax -5.74575 4.4773 -1.85971
lowerneck -10.9398 -11.7111 -10.1182
upperneck 9.79432 -14.8842 5.70361
head 5.91503 -7.26793 2.00615
rclavicle 1.2921e-014 -2.70347e-014
rhumerus -4.42815 12.7584 -56.4573
rradius 74.9374
rwrist -43.7902
rhand -3.20753 -50.403
rfingers 7.12502
rthumb 22.5148 -79.1103
lclavicle 1.2921e-014 -2.70347e-014
lhumerus -49.931 -12.6609 94.4257
lradius 62.9475
lwrist 15.7853
lhand -7.56346 -22.6418
lfingers 7.12502
lthumb 18.3288 6.5147
rfemur 0 0 0
rtibia 0
rfoot 0 0
rtoes 0
lfemur -13.2488 -7.94891 -15.181
ltibia 23.0714
lfoot -16.5208 4.89605
ltoes -55.7615
